<svg xmlns="http://www.w3.org/2000/svg" width="53.344" height="20.188" viewBox="0 0 53.344 20.188">
  <defs>
    <style>
      .cls-1 {
        fill: #fff;
        fill-rule: evenodd;
      }
    </style>
  </defs>
  <path id="mountains" class="cls-1" d="M264.65,27.34h26.662l-0.006-.232-12.218-12.2-3.347,3.343L264.65,7.172,253.559,18.249l-3.347-3.343-12.218,12.2-0.027.232H264.65Zm13.94-9.891c0.615-.183.285,0.427,0.5,0.674,0.02,0.005.771-.426,0.789-0.418,0.292,0.541,1.911,3.267,2.647,3.068,0.824,0.622.231,0.725,0.745,1.617-1.3-.7.5,2.868-1.264,0.316-0.273.345-.306,1.211-0.54,1.239a0.266,0.266,0,0,1-.215-0.009l0.093-.093-0.269-.269a4.343,4.343,0,0,1-.794-0.793l-3.554-3.55A13.722,13.722,0,0,1,278.59,17.449Zm-28.642-.725c0.615-.184.537,0.016,0.75,0.264,0.019,0.006.519-.015,0.538-0.008-0.361,2.971,1.737,4.1,2.646,5.678-0.339.2-.464,0.655-0.8,0.86-0.214.13-.021-0.324-0.254-0.3-2.22-.052-1.563,1.261-1.971.782-0.953.985-1.7,1.07-2.692,2.008-0.128-.149,1.39-1.368,1.114-1.389-3.434-.311-4.762,1.522-4.43.616a0.287,0.287,0,0,0-.055-0.152,2.792,2.792,0,0,1-.243.191c-0.03,0-.062.007-0.095,0.012a3.6,3.6,0,0,0-1.182-.227c1.258-.753,1.447-1.846.608-1.425-0.119.049-1.086,0.86-1.266,1.021a2.665,2.665,0,0,1-.332-0.351S249.089,17.389,249.948,16.724Zm14.539-6.956c0.615-.184.537,0.016,0.749,0.263,0.02,0.007.52-.014,0.539-0.008-0.361,2.972,1.736,4.1,2.645,5.679-0.338.2-.464,0.655-0.8,0.86-0.214.13-.021-0.325-0.255-0.3-2.22-.052-1.563,1.261-1.971.78-0.953.986-1.7,1.071-2.691,2.01a1.383,1.383,0,0,0-.469-0.751c-2.841.753-4.564,2.971-4.232,2.065a0.284,0.284,0,0,0-.056-0.152,2.8,2.8,0,0,1-.242.192c-0.03,0-.062.007-0.1,0.012-0.049-.072.3-2.371,0.2-2.314,1.257-.753,1.447-1.846.607-1.426-0.118.049-1.086,0.86-1.266,1.021a2.65,2.65,0,0,1-.331-0.352S263.627,10.432,264.487,9.768Z" transform="translate(-237.969 -7.156)"/>
</svg>
